<?xml version="1.0" encoding="UTF-8" standalone="no"?>
<!-- Created with Inkscape (http://www.inkscape.org/) -->

<svg
   version="1.1"
   id="svg1"
   width="1066.6667"
   height="266.66666"
   viewBox="0 0 1066.6667 266.66666"
   xmlns="http://www.w3.org/2000/svg"
   xmlns:svg="http://www.w3.org/2000/svg">
  <defs
     id="defs1" />
  <g
     id="g1">
    <path
       style="display:inline;fill:#ffffff;fill-opacity:1"
       d="m 6.79415,257.90265 c -7.65676539,-6.44274 -8.2460946,-20.29909 -1.1424645,-26.8617 6.3646875,-5.87995 21.0149835,-6.88035 21.0149835,-1.43502 0,2.21431 -0.614373,2.471 -4.088066,1.70805 -7.905605,-1.73636 -15.9119358,4.6468 -15.9119358,12.68601 0,8.02765 7.8335728,14.09995 16.0656698,12.45353 3.369447,-0.67389 3.934332,-0.38006 3.934332,2.04647 0,2.57 -0.734032,2.83333 -7.897701,2.83333 -6.538693,0 -8.599275,-0.59033 -11.974818,-3.43067 z m 35.02241,-13.81634 c 5.473697,-17.25937 5.548351,-17.3953 9.560118,-17.40743 3.98319,-0.012 4.119829,0.22084 9.184946,15.65444 2.827883,8.61667 5.422574,16.41667 5.765979,17.33334 0.396585,1.05862 -0.606034,1.66666 -2.74821,1.66666 -2.672132,0 -3.692454,-0.96922 -4.912722,-4.66666 -1.449356,-4.3916 -1.885463,-4.66667 -7.398614,-4.66667 -5.491919,0 -5.92825,0.27113 -6.97365,4.33333 -0.849269,3.30008 -1.935356,4.43049 -4.554899,4.74077 l -3.439724,0.40743 z m 13.41616,-0.41965 c -2.103136,-6.66263 -4.384445,-12.2559 -4.486533,-11 -0.05961,0.73333 -0.973188,4.18333 -2.030174,7.66666 l -1.921793,6.33334 h 4.692742 c 4.258247,0 4.605063,-0.27777 3.745758,-3 z m 22.100619,0.48379 v -17.48379 h 8.369993 c 9.814799,0 14.296678,2.39422 14.296678,7.63728 0,1.91734 -1.008712,4.60069 -2.241579,5.96299 -2.111728,2.33343 -2.07311,2.59491 0.666667,4.51393 3.859932,2.7036 3.937332,9.87452 0.143639,13.30776 -1.981909,1.7936 -5.379266,2.64968 -12.000001,3.02378 l -9.235397,0.52185 z m 14.754323,11.80263 c 2.882825,-1.54284 3.428505,-6.57026 0.979012,-9.01976 -0.88,-0.88 -3.28,-1.6 -5.333334,-1.6 -3.535803,0 -3.733334,0.31746 -3.733334,6 0,5.17476 0.37883,6 2.754323,6 1.514877,0 3.914877,-0.62111 5.333333,-1.38024 z m -0.38433,-16.69536 c 1.629838,-1.14158 2.963342,-2.59873 2.963342,-3.2381 0,-2.29038 -4.250093,-5.35296 -7.428572,-5.35296 -2.888889,0 -3.238096,0.57516 -3.238096,5.33333 0,5.9909 2.370143,6.99324 7.703326,3.25773 z m 21.630008,4.74227 v -17.33333 h 3.33334 3.33333 v 17.33333 17.33333 h -3.33333 -3.33334 z m 18.66667,0 v -17.33333 h 3.90346 c 3.3505,0 4.60559,1.15582 8.85988,8.15914 2.72603,4.48753 6.04557,10.33753 7.37675,13 l 2.42032,4.84086 0.0531,-13 c 0.0494,-12.0934 0.2391,-13 2.7198,-13 2.53061,0 2.66666,0.88889 2.66666,17.42189 v 17.4219 l -3.45557,-0.4219 c -2.81199,-0.34332 -4.79856,-2.77159 -10.66666,-13.03831 l -7.2111,-12.61641 v 12.94975 c 0,12.92417 -0.007,12.94974 -3.33334,12.94974 h -3.33333 z m 41.33334,0 v -17.33333 h 10 c 9.11111,0 10,0.23704 10,2.66666 0,2.31112 -0.88889,2.66667 -6.66667,2.66667 h -6.66667 v 4.66667 4.66666 h 6.66667 c 5.03704,0 6.66667,0.48889 6.66667,2 0,1.51112 -1.62963,2 -6.66667,2 h -6.66667 v 5.33334 5.33333 h 7.33334 c 6.44444,0 7.33333,0.32323 7.33333,2.66667 0,2.44444 -0.88889,2.66666 -10.66667,2.66666 h -10.66666 z m 40,2.83989 v -14.67891 l -4.98891,-0.41383 c -3.4866,-0.2892 -5.12207,-1.11645 -5.4311,-2.74715 -0.39741,-2.09706 0.91782,-2.33333 12.98891,-2.33333 12.54221,0 13.4311,0.17648 13.4311,2.66666 0,2.22832 -0.88889,2.66667 -5.4075,2.66667 h -5.4075 l 0.25295,14.33333 c 0.24185,13.70484 0.12817,14.35202 -2.59251,14.7594 -2.75853,0.41306 -2.84544,-0.0223 -2.84544,-14.25284 z m 42.66667,-2.83989 v -17.33333 h 10 c 9.11111,0 10,0.23704 10,2.66666 0,2.34712 -0.88889,2.66667 -7.41781,2.66667 h -7.41781 l 0.41781,4.33333 c 0.40061,4.15499 0.67847,4.35006 6.75114,4.73973 4.32405,0.27745 6.33334,0.99454 6.33334,2.26027 0,1.26574 -2.00929,1.98282 -6.33334,2.26028 -6.25513,0.40137 -6.33839,0.46728 -6.74305,5.33757 l -0.40972,4.93119 7.7301,0.40215 c 6.10918,0.31782 7.82321,0.89142 8.17415,2.73548 0.39322,2.06621 -0.78826,2.33333 -10.32038,2.33333 h -10.76443 z m 32,-0.0845 V 226.4977 l 4.12188,0.41781 c 3.67343,0.37236 4.90646,1.79043 11.33333,13.03423 l 7.21146,12.61641 v -12.94974 c 0,-12.06086 0.18304,-12.94975 2.66667,-12.94975 2.52991,0 2.66666,0.88889 2.66666,17.33333 v 17.33333 h -3.29533 c -2.76389,0 -4.59163,-2.19252 -11.33334,-13.59529 l -8.03799,-13.59529 v 13.59529 c 0,12.7064 -0.17436,13.59529 -2.66667,13.59529 -2.53058,0 -2.66667,-0.88889 -2.66667,-17.41781 z m 64.34177,16.04605 c -4.45632,-1.79162 -8.33103,-9.08599 -8.33678,-15.69445 -0.01,-11.50524 6.76947,-17.90814 18.96135,-17.90814 7.2955,0 8.09985,0.38181 6.97569,3.31132 -0.58388,1.52157 -2.07358,1.87947 -5.7632,1.38459 -4.03682,-0.54146 -5.78121,0.0103 -9.24397,2.92405 -3.69585,3.10985 -4.26819,4.43835 -4.26819,9.90717 0,8.38759 4.03396,12.48274 12.27948,12.46573 5.45056,-0.0113 8.31014,1.61545 6.88719,3.91783 -0.88213,1.42733 -13.73829,1.20087 -17.49157,-0.3081 z m 33.28063,-0.70918 c -4.32226,-3.02743 -6.95572,-8.95472 -6.95572,-15.65567 0,-15.10396 17.16146,-23.40495 27.3414,-13.22501 4.2067,4.2067 5.16502,7.88882 4.32593,16.62141 -0.90273,9.39489 -6.21067,14.34021 -15.39169,14.34021 -3.59532,0 -7.63751,-0.90253 -9.31992,-2.08094 z m 14.05829,-3.9788 c 8.39954,-5.88327 4.42581,-24.60692 -5.22233,-24.60692 -4.61519,0 -9.12502,5.93349 -9.12502,12.0056 0,11.67737 6.95067,17.78216 14.34735,12.60132 z m 28.6246,5.16735 c -3.83344,-1.54237 -5.63861,-8.27866 -5.63861,-21.04139 0,-12.69285 0.0105,-12.73288 3.33333,-12.73288 3.33282,0 3.33334,0.002 3.33334,13.30259 0,12.64726 0.16099,13.40809 3.26805,15.44391 7.50604,4.91815 11.39861,-1.32397 11.39861,-18.2788 0,-9.57881 0.22645,-10.4677 2.66667,-10.4677 2.48082,0 2.66667,0.88889 2.66667,12.75432 0,17.63261 -2.60024,21.87712 -13.33334,21.76468 -3.3,-0.0346 -6.76262,-0.3697 -7.69472,-0.74473 z m 34.36139,-16.44094 v -17.33333 h 8.72728 c 7.57723,0 9.17536,0.44809 12.1277,3.40043 3.91047,3.91047 3.53446,9.04258 -0.94049,12.8365 -1.70253,1.44342 -2.12616,2.55356 -1.19424,3.12952 1.66363,1.02817 3.19318,4.73283 4.57327,11.07666 0.89235,4.10187 0.73027,4.40908 -2.1104,4 -2.35547,-0.33921 -3.47713,-1.82966 -4.78342,-6.3562 -1.78173,-6.17404 -3.48634,-8.03225 -7.3997,-8.0665 -1.94187,-0.017 -2.33333,1.2099 -2.33333,7.31292 0,6.93333 -0.18182,7.33333 -3.33333,7.33333 h -3.33334 z m 15.2381,-3.42857 c 4.39871,-4.39871 1.16499,-9.90476 -5.81711,-9.90476 -2.37549,0 -2.75432,0.82524 -2.75432,6 0,5.46405 0.28924,6 3.23809,6 1.78096,0 4.18096,-0.94286 5.33334,-2.09524 z m 27.42857,6.26846 v -14.67891 l -4.98891,-0.41383 c -3.4866,-0.2892 -5.12207,-1.11645 -5.4311,-2.74715 -0.39741,-2.09706 0.91783,-2.33333 12.98891,-2.33333 12.40288,0 13.4311,0.19798 13.4311,2.58618 0,2.00528 -1.08105,2.67913 -4.81288,3 l -4.81288,0.41382 -0.18712,14 c -0.17961,13.43802 -0.30754,14.0171 -3.18712,14.42606 -2.95524,0.41972 -3,0.20709 -3,-14.25284 z m 20.72462,11.49344 c 0.49737,-1.65 2.97915,-9.48493 5.51506,-17.41095 l 4.61074,-14.41096 4.13028,0.41096 c 3.95623,0.39364 4.3122,0.95465 8.44737,13.31315 2.3744,7.0962 4.73295,14.7956 5.24123,17.10977 0.84503,3.84738 0.65999,4.16965 -2.16141,3.76448 -2.17876,-0.31289 -3.45463,-1.73555 -4.34141,-4.84087 -1.20984,-4.23662 -1.47858,-4.38318 -7.33453,-4 -5.58692,0.36558 -6.17867,0.74831 -7.31485,4.73109 -0.95747,3.35631 -1.96451,4.33333 -4.46649,4.33333 -2.729,0 -3.08997,-0.46556 -2.32599,-3 z m 17.3988,-14.66666 c -0.46985,-1.65 -1.21483,-4.65 -1.65551,-6.66667 -0.44068,-2.01667 -1.25124,-3.66667 -1.80124,-3.66667 -0.55,0 -1.36055,1.65 -1.80123,3.66667 -0.44068,2.01667 -1.18566,5.01667 -1.65551,6.66667 -0.75993,2.66868 -0.37817,3 3.45674,3 3.83491,0 4.21667,-0.33132 3.45675,-3 z m 27.62835,15.06636 c -5.50225,-3.35496 -7.0851,-6.49267 -7.0851,-14.04492 0,-12.54781 6.54963,-18.4424 19.72572,-17.75289 5.6965,0.29811 7.60762,0.90054 7.60762,2.39811 0,1.51047 -1.73958,2.03361 -7.10699,2.1373 -5.80275,0.1121 -7.7547,0.78499 -10.63637,3.66667 -6.86178,6.86178 -3.24488,19.47082 6.09749,21.25673 5.29918,1.013 6.9792,-0.23954 6.9792,-5.20335 0,-3.63512 -0.52395,-4.52401 -2.66667,-4.52401 -1.48148,0 -2.66666,-0.88889 -2.66666,-2 0,-1.48148 1.55555,-2 6,-2 h 6 v 8.51116 c 0,7.69928 -0.28617,8.58784 -3,9.31512 -6.10385,1.63577 -15.01553,0.82095 -19.24824,-1.75992 z m 34.24824,-14.73303 v -17.33333 h 10 c 9.11111,0 10,0.23704 10,2.66666 0,2.31112 -0.88889,2.66667 -6.66667,2.66667 h -6.66666 v 4.66667 4.66666 h 6.66666 c 5.03704,0 6.66667,0.48889 6.66667,2 0,1.51112 -1.62963,2 -6.66667,2 h -6.66666 v 5.33334 5.33333 h 7.33333 c 6.44445,0 7.33333,0.32323 7.33333,2.66667 0,2.44444 -0.88888,2.66666 -10.66666,2.66666 h -10.66667 z m 49.33334,0 c 0,-16.44444 0.13675,-17.33333 2.66666,-17.33333 2.31111,0 2.66667,0.88889 2.66667,6.66666 v 6.66667 h 8 8 v -6.66667 c 0,-5.77777 0.35556,-6.66666 2.66667,-6.66666 2.52991,0 2.66667,0.88889 2.66667,17.33333 0,16.29659 -0.15552,17.33333 -2.60013,17.33333 -2.23013,0 -2.65703,-1.09098 -3,-7.66666 l -0.39988,-7.66667 h -7.33333 -7.33333 l -0.39987,7.66667 c -0.34297,6.57568 -0.76988,7.66666 -3,7.66666 -2.44461,0 -2.60013,-1.03674 -2.60013,-17.33333 z m 48,10.44708 c 0,-5.52547 -1.05391,-8.80653 -5.33333,-16.60386 -2.93334,-5.34468 -5.33334,-10.04587 -5.33334,-10.44708 0,-0.40121 1.37501,-0.72947 3.05558,-0.72947 2.38925,0 3.88634,1.67187 6.86521,7.66666 l 3.80964,7.66667 3.46812,-7.62594 c 2.95367,-6.49473 3.99905,-7.63197 7.04735,-7.66666 l 3.57922,-0.0407 L 713.92253,237 c -4.91099,8.59732 -5.90431,11.50934 -5.91256,17.33333 -0.009,6.10781 -0.3498,7 -2.67658,7 -2.32245,0 -2.66667,-0.88889 -2.66667,-6.88625 z m 26.66667,-10.44708 v -17.33333 h 8.41525 c 10.48103,0 14.25142,2.78106 14.25142,10.51195 0,6.37787 -3.44154,9.72288 -11.04798,10.73812 l -5.61869,0.74993 -0.40639,6.33333 c -0.3366,5.2457 -0.85179,6.33333 -3,6.33333 -2.43625,0 -2.59361,-1.05163 -2.59361,-17.33333 z m 14.66667,-2.66667 c 1.46666,-1.46666 2.66666,-3.47367 2.66666,-4.46001 0,-2.91501 -4.86849,-6.45563 -8.22338,-5.98046 -2.44186,0.34585 -3.20174,1.39864 -3.53723,4.90074 -0.235,2.45314 -0.10383,5.30314 0.29149,6.33333 1.04257,2.7169 5.71303,2.29583 8.80246,-0.7936 z m 23.2,15.46667 c -4.15204,-4.15204 -4.53334,-5.20881 -4.53334,-12.56437 0,-6.67484 0.57737,-8.71719 3.41904,-12.09432 6.9841,-8.30013 19.58696,-7.77895 25.53222,1.05587 3.5168,5.22604 3.97484,12.67202 1.18959,19.33806 -2.60032,6.22343 -6.86431,8.79809 -14.57085,8.79809 -5.61816,0 -7.12036,-0.61703 -11.03666,-4.53333 z m 16.76609,-2.09942 c 7.26112,-7.26112 3.66672,-24.03391 -5.15046,-24.03391 -3.82637,0 -7.99366,3.89148 -9.323,8.70597 -3.30564,11.97204 6.95886,22.84253 14.47346,15.32794 z m 28.03391,-8.03391 v -14.66667 h -5.33333 c -4.44445,0 -5.33334,-0.44444 -5.33334,-2.66667 0,-2.48888 0.88889,-2.66666 13.33334,-2.66666 12.44444,0 13.33333,0.17778 13.33333,2.66666 0,2.22223 -0.88889,2.66667 -5.33333,2.66667 h -5.33333 v 14.66667 c 0,13.77777 -0.16162,14.66666 -2.66667,14.66666 -2.50505,0 -2.66667,-0.88889 -2.66667,-14.66666 z m 25.33334,-2.66667 v -17.33333 h 3.33333 c 3.11111,0 3.33333,0.44444 3.33333,6.66666 v 6.66667 h 7.33334 7.33333 v -6.66667 c 0,-6.22222 0.22222,-6.66666 3.33334,-6.66666 h 3.33333 v 17.33333 17.33333 h -3.33333 c -3.18519,0 -3.33334,-0.35555 -3.33334,-8 v -8 h -7.33333 -7.33334 v 8 c 0,7.64445 -0.14814,8 -3.33333,8 h -3.33333 z m 41.33333,0 v -17.33333 h 10 c 9.11112,0 10.00001,0.23704 10.00001,2.66666 0,2.34712 -0.88889,2.66667 -7.41782,2.66667 h -7.41781 l 0.41781,4.33333 c 0.40062,4.15499 0.67848,4.35006 6.75115,4.73973 4.32404,0.27745 6.33333,0.99454 6.33333,2.26027 0,1.26574 -2.00929,1.98282 -6.33333,2.26028 -6.27228,0.40247 -6.33733,0.45459 -6.74716,5.40639 l -0.41382,5 h 7.41382 c 6.52494,0 7.41383,0.31972 7.41383,2.66667 0,2.42963 -0.88889,2.66666 -10.00001,2.66666 h -10 z m 39.33334,16.07286 c -5.06372,-2.07254 -7.76481,-6.54902 -8.37237,-13.87543 -1.06038,-12.78672 5.57675,-19.83845 18.67204,-19.83845 7.35484,0 8.10362,0.37197 6.92604,3.4407 -0.58904,1.53501 -1.78354,1.9438 -4.03139,1.37962 -8.50823,-2.13543 -15.19432,3.51453 -15.19432,12.8397 0,8.24534 4.08664,12.34974 12.27947,12.33284 5.45057,-0.0113 8.31015,1.61545 6.8872,3.91783 -0.84871,1.37323 -13.69038,1.22601 -17.16667,-0.19681 z m 27.3593,0.26047 c 0.0143,-0.55 2.34023,-8.2 5.16878,-17 l 5.14281,-16 h 4.24755 4.24756 l 5.23717,16 c 2.88045,8.8 5.2431,16.45 5.25034,17 0.007,0.55 -1.40004,1 -3.12729,1 -2.40061,0 -3.43168,-1.02086 -4.37664,-4.33333 -1.14166,-4.00195 -1.71158,-4.36418 -7.45266,-4.73672 -6.16791,-0.40023 -6.22341,-0.36639 -7.10508,4.33334 -0.72353,3.85675 -1.48029,4.73671 -4.07356,4.73671 -1.75172,0 -3.17326,-0.45 -3.15898,-1 z m 18.10794,-16.94119 c -0.45202,-1.80099 -1.48677,-4.95099 -2.29943,-7 l -1.47758,-3.72547 -1.74368,4.66666 c -2.87775,7.70184 -2.49353,9.33334 2.198,9.33334 3.73521,0 4.06337,-0.32341 3.32269,-3.27453 z m 23.19943,0.60786 c 0,-16.44444 0.13675,-17.33333 2.66667,-17.33333 2.52991,0 2.66667,0.88889 2.66667,17.33333 0,16.44444 -0.13676,17.33333 -2.66667,17.33333 -2.52992,0 -2.66667,-0.88889 -2.66667,-17.33333 z m 18.66666,0 v -17.33333 h 8.519 c 6.2923,0 9.3126,0.64267 11.5555,2.45889 4.0678,3.29386 4.1298,10.40481 0.1191,13.65248 -1.8518,1.4995 -2.39,2.68854 -1.4733,3.25508 1.6636,1.02817 3.1931,4.73283 4.5732,11.07666 0.8924,4.10187 0.7303,4.40908 -2.1104,4 -2.3554,-0.33921 -3.4771,-1.82966 -4.7834,-6.3562 -1.7817,-6.17404 -3.4863,-8.03225 -7.3997,-8.0665 -1.9419,-0.017 -2.3333,1.2099 -2.3333,7.31292 0,6.93333 -0.1818,7.33333 -3.3334,7.33333 h -3.3333 z m 15.2381,-3.42857 c 4.3987,-4.39871 1.165,-9.90476 -5.8171,-9.90476 -2.3755,0 -2.7543,0.82524 -2.7543,6 0,5.46405 0.2892,6 3.2381,6 1.7809,0 4.1809,-0.94286 5.3333,-2.09524 z m 20.7619,3.42857 v -17.33333 h 10.0978 c 8.897,0 10.045,0.27746 9.6542,2.33333 -0.3437,1.80765 -2.0357,2.42475 -7.5102,2.73909 l -7.0666,0.40575 0.4124,4.26092 c 0.3939,4.06937 0.6971,4.27918 6.7457,4.6673 4.4466,0.28532 6.3334,0.98044 6.3334,2.33333 0,1.42344 -1.742,1.92694 -6.6667,1.92694 h -6.6667 v 5.33334 5.33333 h 7.3334 c 6.4444,0 7.3333,0.32323 7.3333,2.66667 0,2.42963 -0.8889,2.66666 -10,2.66666 h -10 z M 886.66673,222.93332 c 0,-2.11416 3.26575,-4.26666 6.47332,-4.26666 3.18886,0 3.21105,0.0688 0.86002,2.66666 -2.36777,2.61636 -7.33334,3.69975 -7.33334,1.6 z M 1.3333334,181.99999 c 0,-1.77443 60.0000046,-2 532.0000366,-2 472.00003,0 532.00003,0.22557 532.00003,2 0,1.77444 -60,2 -532.00003,2 -472.000032,0 -532.0000366,-0.22556 -532.0000366,-2 z M 105.49163,136.7429 c -2.20488,-8.75637 -1.98187,-9.45017 3.88862,-12.09739 6.20151,-2.79649 14.1659,-11.03962 15.394,-15.93277 0.61327,-2.44344 -2.31293,-11.233999 -10.7743,-32.366948 -6.38893,-15.956853 -12.74381,-31.86246 -14.121964,-35.345794 l -2.505733,-6.333333 h 10.396407 10.3964 l 8.58414,26.531846 c 4.72128,14.592515 8.88414,26.246662 9.25081,25.898104 0.36667,-0.348557 3.98313,-12.137888 8.03659,-26.198512 l 7.36993,-25.564771 10.25784,-0.388719 10.25783,-0.388718 -3.41329,9.055385 c -1.87731,4.980461 -7.01009,18.955384 -11.40619,31.055384 -15.07264,41.486596 -24.72687,57.585376 -38.71269,64.554796 -9.70489,4.83616 -11.12526,4.56322 -12.8984,-2.47856 z m 78.06394,2.36821 c -0.48889,-0.48889 -0.88889,-24.18889 -0.88889,-52.666669 V 34.666665 h 7.82959 7.82959 l 0.86978,5.439329 0.86979,5.439328 3.85549,-4.127316 c 5.24701,-5.616939 11.786,-8.084674 21.42272,-8.084674 13.16614,0 22.18904,6.174629 28.25156,19.333333 2.50309,5.432965 3.06228,8.887327 3.02174,18.666666 -0.0772,18.620848 -6.15373,29.633299 -19.95026,36.155609 -11.02019,5.2098 -24.41,3.64148 -32.31513,-3.785 l -3.0182,-2.83545 v 19.56575 19.56575 h -8.44445 c -4.64444,0 -8.84444,-0.4 -9.33333,-0.88888 z m 44.69895,-45.444447 c 11.54593,-6.736331 13.35317,-30.197593 3.15879,-41.006788 -3.81722,-4.047431 -5.2233,-4.659877 -10.69834,-4.659877 -8.22102,0 -13.42303,3.19979 -16.909,10.400838 -2.32505,4.802916 -2.70268,7.543814 -2.21056,16.044783 0.64796,11.193104 2.99441,16.332896 8.92896,19.558499 4.79965,2.608744 12.94618,2.453693 17.73015,-0.337455 z M 630.66671,119.86187 V 99.72375 l -4.5523,3.99698 c -6.16719,5.41486 -12.92998,7.44125 -21.78433,6.5274 -18.10194,-1.86829 -30.15699,-20.403351 -27.81893,-42.772618 2.16483,-20.71199 15.14902,-34.04446 33.22178,-34.112897 8.68614,-0.03289 14.76176,2.412261 19.2605,7.751451 l 2.99337,3.552599 0.007,-5 0.007,-5 h 9.50779 9.50779 l -0.82645,5 c -0.45455,2.75 -0.83305,26.449999 -0.84112,52.666665 l -0.0147,47.66666 h -9.33333 -9.33334 z m -9.20815,-25.926605 c 6.9518,-3.594917 9.19753,-9.044974 9.20317,-22.334814 0.007,-17.257592 -4.54858,-23.607648 -16.9288,-23.595469 -11.10137,0.01092 -18.11574,8.970006 -18.29785,23.370873 -0.23481,18.568926 12.45961,29.573555 26.02348,22.55941 z M 294.86089,108.64401 c -11.68043,-3.26226 -19.33936,-10.158541 -23.56225,-21.216017 -3.18724,-8.345669 -2.26841,-27.19024 1.69933,-34.85228 10.84743,-20.947259 42.98439,-25.996882 59.61421,-9.367073 13.06746,13.067464 14.05852,39.806861 2.01683,54.415517 -8.3422,10.120523 -25.73333,14.939653 -39.76812,11.019853 z M 317.3218,92.325275 c 12.35647,-12.356469 9.39241,-39.208443 -4.99144,-45.2184 -8.18945,-3.42177 -17.28836,0.316811 -21.6689,8.903363 -6.27515,12.300309 -4.10184,29.440791 4.71439,37.181542 3.80921,3.344531 5.89289,4.14155 10.82743,4.14155 5.28496,0 6.78705,-0.67658 11.11852,-5.008055 z m 58.01156,16.471365 c -10.3178,-4.55438 -12.53332,-11.430366 -12.60814,-39.129976 l -0.0585,-21.666666 h -5.33333 -5.33333 v -6.666666 -6.666667 h 5.33333 5.33333 v -7.114732 -7.114732 l 7.97987,-2.218601 c 4.38893,-1.22023 8.58893,-2.218601 9.33334,-2.218601 0.78683,0 1.35346,3.907452 1.35346,9.333333 v 9.333333 h 8.66667 8.66667 v 6.666667 6.666666 h -8.66667 -8.66667 v 20.518954 c 0,18.218357 0.28586,20.871877 2.54953,23.666666 2.0468,2.527037 3.75572,3.122501 8.66666,3.019859 l 6.11715,-0.127853 v 6.961186 c 0,6.72986 -0.13846,6.98888 -4.16667,7.79452 -6.61517,1.32303 -14.82704,0.87887 -19.16667,-1.03669 z m 146.43225,-0.0493 c -16.65695,-5.20832 -24.43224,-16.668347 -24.43224,-36.010793 0,-5.277165 0.94506,-12.368447 2.10014,-15.758404 2.66965,-7.834989 11.5528,-17.977702 18.51492,-21.140182 7.26095,-3.298224 22.15574,-3.307337 29.39638,-0.01799 11.31067,5.138328 18.57556,18.977541 17.72757,33.770067 l -0.40567,7.076622 -25.13704,0.363257 -25.13703,0.363258 0.86387,3.636742 c 1.26636,5.331149 4.9846,9.978974 10.17164,12.714626 3.71467,1.959116 6.82188,2.307792 16.57189,1.859614 6.6,-0.303382 12.97031,-0.972042 14.15624,-1.485912 1.71471,-0.742993 2.47782,0.342795 3.7267,5.302572 0.86376,3.430293 1.36836,6.438993 1.12134,6.686013 -0.24702,0.24702 -4.00009,1.37403 -8.34017,2.50448 -9.46918,2.46641 -23.2516,2.52708 -30.89854,0.13603 z m 26.23443,-46.790167 c 0,-3.991703 -3.73282,-10.886932 -7.50509,-13.863339 -4.93631,-3.894857 -13.70521,-3.231496 -18.74977,1.418405 -3.235,2.981914 -7.07847,10.101263 -7.07847,13.1116 0,0.872594 6.09867,1.376159 16.66666,1.376159 14.08122,0 16.66667,-0.316898 16.66667,-2.042825 z m 136.42153,46.118207 c -11.891,-5.39869 -15.06163,-16.279006 -15.07811,-51.742049 l -0.0101,-21.666666 h 9.33334 9.33333 v 20.601038 c 0,23.872161 1.42889,32.437955 6.15111,36.874248 4.10082,3.852521 11.79242,4.178858 17.06515,0.724034 6.40515,-4.196818 7.45041,-9.082341 7.45041,-34.823162 V 34.666665 h 9.33334 9.33333 v 37.333332 37.333333 h -8 c -7.83344,0 -8.00043,-0.0763 -8.02042,-3.66667 -0.0348,-6.252246 -1.76776,-7.457271 -5.14254,-3.57593 -7.00068,8.05149 -21.27149,10.74153 -31.74886,5.98465 z m 93.16514,0.70444 c -15.80523,-5.16806 -24.07385,-17.343564 -24.1948,-35.62671 -0.11075,-16.742839 7.67258,-30.891111 20.37747,-37.04144 7.77675,-3.764661 22.88295,-3.860202 30.07671,-0.190224 11.09739,5.661466 17.48731,17.958702 17.48731,33.653886 v 7.757998 h -25.47788 -25.47788 l 0.87138,3.666667 c 1.27383,5.360146 4.98298,10.004082 10.17915,12.74455 3.71467,1.959116 6.82188,2.307792 16.57189,1.859614 6.6,-0.303382 12.9958,-0.981823 14.21288,-1.507646 2.30809,-0.997179 2.77747,-0.145562 4.40746,7.996775 0.76241,3.80844 0.46778,4.20941 -4.23379,5.76195 -7.86295,2.59649 -28.04678,3.13275 -34.7999,0.92458 z m 26.41335,-47.578317 c 0,-4.856768 -4.20602,-11.906228 -8.39679,-14.073359 -9.67754,-5.00445 -21.27641,1.348101 -24.11084,13.205187 l -0.87651,3.666667 h 16.69207 c 16.06529,0 16.69207,-0.105084 16.69207,-2.798495 z m 36.91885,47.638777 c -3.52797,-0.99142 -6.88308,-2.33607 -7.4558,-2.98811 -0.57272,-0.65203 -0.22814,-3.94058 0.76574,-7.307886 l 1.80705,-6.122379 6.98208,2.412184 c 8.2307,2.843559 15.02818,3.111165 19.64875,0.773541 2.71272,-1.372406 3.33334,-2.67205 3.33334,-6.980344 V 83.33333 l -11.36501,-5.480411 c -14.53253,-7.007845 -19.96833,-12.805844 -19.96833,-21.298863 0,-9.619106 6.04907,-18.046013 15.67833,-21.841344 5.14988,-2.029804 24.82422,-1.342313 29.18824,1.019942 2.6922,1.457295 2.76296,1.897852 1.16328,7.242844 -1.45488,4.861176 -2.16461,5.626312 -4.86657,5.246464 -1.7398,-0.244586 -6.86724,-0.743744 -11.3943,-1.10924 -7.80103,-0.629822 -8.35411,-0.476672 -10.58735,2.931678 -3.62858,5.537914 -0.64315,9.546973 10.51064,14.114467 11.76863,4.819277 16.13342,8.042527 18.96163,14.002532 4.96261,10.457926 0.33329,23.217851 -10.43285,28.756341 -6.93456,3.56739 -22.73456,4.51757 -31.96887,1.92254 z m 63.08116,0.13326 c -10.58849,-5.45809 -6.92772,-21.506877 4.90577,-21.506877 9.41103,0 14.40152,11.349906 8.09423,18.408787 -3.72961,4.17403 -8.64173,5.34466 -13,3.09809 z m 51.10994,-0.77497 c -9.89493,-3.41944 -15.69346,-8.402469 -20.0003,-17.187497 -3.19791,-6.523047 -3.75646,-9.281959 -3.71391,-18.344409 0.0785,-16.711258 6.57007,-28.188735 19.77795,-34.968426 5.35595,-2.749241 9.30527,-3.630217 18.33501,-4.08999 12.53419,-0.63821 21.8402,1.35742 20.66089,4.430632 -0.37393,0.974462 -1.08449,3.928519 -1.57902,6.564572 -0.88221,4.702605 -0.99035,4.774272 -5.74485,3.807277 -14.13972,-2.875813 -24.74625,0.913561 -29.69198,10.607998 -3.6401,7.135185 -3.12593,21.65849 0.96551,27.271981 4.59206,6.300344 13.34874,10.007411 21.88076,9.263034 4.03334,-0.351888 8.32577,-1.037537 9.53874,-1.523664 1.77743,-0.712349 2.46956,0.354708 3.56668,5.498786 0.74871,3.510456 1.10088,6.803996 0.78261,7.318976 -0.95935,1.55227 -13.55537,3.82173 -20.95365,3.77529 -3.81391,-0.0239 -10.0349,-1.11499 -13.82444,-2.42456 z m 58.22409,0.97015 c -8.3224,-3.31857 -13.334,-11.274942 -13.334,-21.168723 0,-15.655554 11.8785,-24.917025 35,-27.288974 6.294,-0.645683 9,-1.473826 9,-2.754413 0,-3.563434 -3.0051,-8.353686 -6.3634,-10.143459 -4.422,-2.356727 -17.1168,-1.956556 -23.5784,0.743248 -2.7778,1.160646 -5.2542,2.110266 -5.503,2.110266 -1.1466,0 -3.2895,-11.125027 -2.319,-12.039139 2.9634,-2.79103 14.7481,-5.291812 24.8104,-5.264911 12.9575,0.03464 20.2045,2.749207 25.3412,9.492255 5.0749,6.661791 6.227,13.898726 6.6039,41.480095 l 0.3416,25.001635 -8.3333,-0.002 c -7.8408,-0.002 -8.3334,-0.18551 -8.3334,-3.11274 0,-4.74503 -1.3373,-5.12258 -5.5597,-1.56962 -6.5401,5.50313 -19.8642,7.66975 -27.7729,4.51612 z m 26.9561,-17.058672 c 3.1953,-3.576196 3.7099,-5.27621 3.7099,-12.256204 v -8.104081 l -7,0.939715 c -9.0838,1.21945 -15.094,3.749104 -16.8927,7.109986 -2.4147,4.511915 -1.7345,11.906668 1.3818,15.023037 4.26,4.259924 13.8011,2.883408 18.801,-2.712453 z M 2.6666669,57.333331 V 5.3333331 h 9.3333341 9.333334 V 25.999999 46.666665 H 43.333337 65.333338 V 25.999999 5.3333331 h 9.333334 9.333334 V 57.333331 109.33333 H 74.666672 65.333338 V 86.666663 63.999998 H 43.333337 21.333335 V 86.666663 109.33333 H 12.000001 2.6666669 Z M 413.33336,54.666665 V 0 h 9.33334 9.33333 v 22.249454 22.249454 l 3.66667,-3.430573 c 5.84998,-5.473307 11.60047,-7.735003 19.66667,-7.735003 10.94733,0 17.16364,3.992883 22.83376,14.666666 2.14252,4.033217 2.54122,8.512611 2.93721,32.999999 l 0.45819,28.333333 h -9.44791 -9.44792 l -0.007,-23 c -0.008,-24.55482 -1.02943,-31.111747 -5.47337,-35.133454 -3.92524,-3.552295 -14.51504,-3.476163 -18.56324,0.133455 -5.73438,5.113125 -6.62263,9.756996 -6.62263,34.623841 v 23.376158 h -9.33333 -9.33334 z"
       id="path1" />
  </g>
  <g
     id="layer1">
    <path
       d="m 0.66873649,180.87148 c 0,-1.77443 60.00000951,-2 532.00004351,-2 472.00002,0 532.00002,0.22557 532.00002,2 0,1.77444 -60,2 -532.00002,2 -472.000034,0 -532.00004351,-0.22556 -532.00004351,-2 z"
       style="display:inline;fill:#ed2224;fill-opacity:1"
       id="path1-3" />
    <path
       d="m 904.00007,108.97354 c -10.58849,-5.45809 -6.92772,-21.506877 4.90577,-21.506877 9.41103,0 14.40152,11.349907 8.09423,18.408787 -3.72961,4.17403 -8.64173,5.34466 -13,3.09809 z"
       style="display:inline;fill:#ed2224;fill-opacity:1"
       id="path1-36" />
  </g>
  <path
     d="m 294.86089,108.64401 c -11.68043,-3.26226 -19.33936,-10.158545 -23.56225,-21.216025 -3.18724,-8.34567 -2.26841,-27.19024 1.69933,-34.85228 10.84743,-20.94726 42.98439,-25.99688 59.61421,-9.36707 13.06746,13.06746 14.05852,39.80686 2.01683,54.41552 -8.3422,10.120515 -25.73333,14.939645 -39.76812,11.019855 z M 317.3218,92.325275 c 12.35647,-12.35647 9.39241,-39.20845 -4.99144,-45.2184 -8.18945,-3.42177 -17.28836,0.31681 -21.6689,8.90336 -6.27515,12.30031 -4.10184,29.44079 4.71439,37.18154 3.80921,3.34453 5.89289,4.14155 10.82743,4.14155 5.28496,0 6.78705,-0.67658 11.11852,-5.00805 z m 34.67826,-44.32528 v -6.66667 -6.66666"
     style="display:inline;fill:#ed2224;fill-opacity:1"
     id="path1-1" />
</svg>
